<?xml version="1.0" encoding="UTF-8"?>
<!DOCTYPE svg PUBLIC "-//W3C//DTD SVG 1.1//EN" "http://www.w3.org/Graphics/SVG/1.1/DTD/svg11.dtd">
<!-- Creator: CorelDRAW X7 -->
<svg xmlns="http://www.w3.org/2000/svg" xml:space="preserve" width="61.7492mm" height="483.754mm" version="1.1" style="shape-rendering:geometricPrecision; text-rendering:geometricPrecision; image-rendering:optimizeQuality; fill-rule:evenodd; clip-rule:evenodd"
viewBox="0 0 6175 48375"
 xmlns:xlink="http://www.w3.org/1999/xlink">
 <defs>
  <style type="text/css">
   <![CDATA[
    .fil21 {fill:#332C2B}
    .fil16 {fill:#7E3D05}
    .fil4 {fill:#931E20}
    .fil17 {fill:#C87809}
    .fil5 {fill:#CF262B}
    .fil19 {fill:#DC0000}
    .fil11 {fill:#E62129}
    .fil2 {fill:#EEEEEF}
    .fil10 {fill:#F08519}
    .fil3 {fill:#F5B803}
    .fil9 {fill:#F6AE45}
    .fil20 {fill:#F7C9DD}
    .fil6 {fill:#FA3137}
    .fil18 {fill:#FEFEFE}
    .fil14 {fill:#FF8405}
    .fil7 {fill:#FFF000}
    .fil1 {fill:white}
    .fil0 {fill:#C9C9C9;fill-rule:nonzero}
    .fil8 {fill:#E62129;fill-rule:nonzero}
    .fil12 {fill:#F08519;fill-rule:nonzero}
    .fil13 {fill:#F4F3F4;fill-rule:nonzero}
    .fil15 {fill:#FF8405;fill-rule:nonzero}
   ]]>
  </style>
 </defs>
 <g id="图层_x0020_1">
  <metadata id="CorelCorpID_0Corel-Layer"/>
  <g id="_301363936">
   <path class="fil0" d="M3110 12234l3 0 2 0 3 0 2 0 2 0c4,-2 9,-3 13,-3l0 0 2 0 2 0 3 0 3 0c4,-3 7,-4 12,-4 4,-1 8,-2 12,-2 3,-1 6,-2 10,-2 3,-1 5,-2 7,-2 2,-1 5,-2 8,-2 1,-2 4,-3 6,-3 3,-1 6,-2 8,-2l2 -1c2,-1 3,-2 5,-3 3,-2 6,-3 10,-4l2 -1c2,-1 4,-2 5,-3 2,0 4,-1 5,-1 1,-1 2,-2 3,-2 3,-3 4,-4 8,-5 2,-3 5,-4 8,-6 1,0 3,-1 4,-2 1,-2 4,-3 7,-4 0,-1 1,-2 2,-3 3,-3 6,-6 11,-7l2 -3c4,-3 6,-5 11,-7l0 -2 3 -1 2 -2 1 -1 2 -2c1,-1 2,-2 3,-3 0,0 0,-1 1,-1 0,0 0,-1 0,-2 1,0 2,-1 3,-2 1,0 1,-1 2,-1 1,-4 4,-7 7,-10 0,0 1,-1 2,-3 2,-4 4,-7 8,-10 1,-3 2,-6 4,-7 37,-41 78,-53 128,-30 53,35 60,85 20,146l-2 2c-2,3 -4,7 -6,8l-1 2c-2,3 -6,7 -9,9l-3 3 -2 3 -1 0 -1 2c-2,4 -4,7 -8,10l-2 2 -3 3 -1 1 -2 2 -1 2 -2 1 -2 2 -2 3 -3 2 -2 2 -2 2c0,1 -1,2 -2,3l-2 1 -3 3c-1,2 -2,2 -3,3 -4,5 -7,7 -11,9 -1,1 -2,2 -3,2 -3,4 -6,6 -9,8l-2 1 -1 2c-1,2 -2,2 -3,3 -3,4 -6,6 -12,8l-2 2c-4,1 -6,3 -9,5 -2,2 -6,5 -9,7 -3,2 -6,4 -10,6 -1,1 -2,1 -4,2 -2,1 -4,2 -5,2l-4 2c-2,2 -5,4 -8,6 -2,1 -4,2 -5,2 -2,1 -4,2 -6,3 -1,1 -3,2 -5,3 -1,0 -2,1 -4,1 -3,3 -7,4 -10,5l-2 0c-2,1 -3,2 -5,3 -4,2 -7,3 -10,4 -4,1 -6,2 -8,2l-3 1c-2,2 -6,3 -10,4 -2,1 -5,2 -7,3 -4,1 -7,2 -11,2 -2,1 -5,2 -6,3 -5,2 -9,2 -13,2 -4,2 -7,3 -10,3 -4,2 -8,3 -12,3l-1 0 -2 0c-4,1 -8,2 -13,2l-1 0 -2 0c-4,2 -7,2 -12,2l-1 0 -1 0 -3 0 -2 0 -3 0 -2 0 -2 0c-5,2 -9,2 -13,2l0 0 -2 0 -2 0 -3 0 -3 0 -2 0 -3 0 -1 0 -3 0 -3 0 -2 0 -3 0 -2 0 -3 0 -2 0 -2 0 -3 0 -5 0 -4 0 -2 0 -3 0c-5,0 -9,0 -12,-2l-3 0 -3 0 -2 0 -3 0 -2 0c-5,0 -8,-1 -12,-2l-3 0 -2 0c-4,0 -8,-1 -12,-2 -5,0 -9,-1 -12,-3 -4,0 -7,-1 -10,-3 -3,0 -7,0 -9,-2 -6,0 -12,-1 -15,-3 -3,-1 -4,-1 -7,-2 -3,0 -7,-1 -10,-3 -3,-1 -5,-2 -8,-2 -4,-1 -9,-3 -13,-6 -3,0 -5,-1 -8,-3l-2 -1c-4,-1 -6,-2 -10,-4 -2,-1 -3,-2 -5,-3l-2 -1c-3,0 -7,-1 -10,-3 -3,-2 -7,-3 -9,-6 -1,-1 -2,-1 -4,-2 -2,-1 -3,-1 -5,-2 -2,-1 -4,-1 -5,-3 -2,0 -3,-1 -5,-2 -4,-1 -8,-5 -12,-8 0,0 -1,-1 -2,-2 -4,-1 -7,-3 -10,-5 -2,-2 -5,-4 -7,-5 -4,-2 -7,-5 -10,-8 -4,-2 -8,-5 -11,-10 -1,0 -2,0 -3,-1l-1 -3 -2 -2c-3,-1 -6,-3 -9,-6l-2 -2 -3 -2 -1 -2 -2 -2c-5,-2 -9,-5 -11,-9 -1,-1 -3,-1 -3,-2l-3 -2 -2 -3c-3,-2 -4,-4 -6,-7 -4,-2 -8,-6 -10,-11l-1 -1 -3 -3 -3 -3c-3,-2 -6,-6 -8,-10l-1 -2c-3,-2 -4,-5 -6,-8l-2 -1 -2 -3c-3,-3 -5,-7 -7,-11l-1 -3 -2 -1c-2,-4 -5,-7 -7,-10l-1 -4c-3,-2 -5,-6 -5,-8l-2 -4c-3,-3 -4,-5 -5,-8 -4,-3 -6,-8 -7,-13l-3 -3c-1,-2 -2,-3 -2,-5 0,-1 -1,-3 -2,-4 -1,-2 -2,-4 -3,-6 -1,-2 -2,-5 -3,-7 -3,-4 -5,-8 -5,-12l-1 -4c-3,-2 -4,-6 -5,-9 0,-3 -1,-6 -2,-8 -1,-3 -2,-4 -3,-7 -1,-3 -1,-5 -2,-8 -1,-3 -3,-7 -3,-11 -1,-2 -2,-3 -2,-6 -2,-4 -3,-8 -3,-13l0 -1c-2,-3 -2,-7 -2,-11l-1 -1c0,-3 -1,-7 -1,-12 -2,-3 -3,-8 -3,-13l0 -1 0 -1 0 -3c-2,-3 -2,-8 -2,-12l0 -1 0 -1 0 -3 0 -4 0 -3 0 -2 0 -3 0 -3c-2,-3 -3,-7 -3,-12l0 0 0 -2 0 -4 0 -3 0 -3 0 -2 0 -3 0 -2 0 -3 0 -2 0 -2 0 -3 0 -5c0,-5 1,-9 3,-13l0 -3 0 -2 0 -3 0 -1 0 -3 0 -5 0 -3c0,-4 0,-7 2,-12l0 -2 0 -3c0,-4 1,-8 3,-12 0,-4 1,-8 1,-12 1,-3 2,-7 3,-9l0 -3c0,-5 1,-9 3,-15 0,-1 1,-4 2,-6 0,-4 2,-7 3,-11 1,-2 1,-5 2,-7 1,-2 2,-5 3,-7 1,-4 2,-7 4,-11 1,-1 2,-2 3,-4l1 -3c0,-3 1,-7 3,-9 1,-2 2,-4 3,-5l1 -3c0,-3 2,-7 4,-9 1,-2 2,-4 2,-5 1,-4 5,-7 7,-10 0,-1 1,-3 1,-3 1,-2 2,-4 3,-6 1,-1 2,-3 2,-5 1,-1 2,-3 3,-4 1,-3 3,-7 5,-9 1,-1 2,-2 2,-4 2,-3 4,-7 7,-10l1 -1 2 -4c2,-4 4,-8 8,-11 2,-3 3,-6 6,-8l2 -3 1 -1c3,-4 5,-7 8,-10l1 -1 2 -2 2 -2c2,-3 4,-6 6,-9l3 -1 2 -4 2 -3 3 -2 1 -1 1 -2 3 -2 1 -1 1 -1 3 -3 2 -2 1 -2 1 -1 3 -2 2 -3c3,-3 8,-6 13,-8l0 -1 3 -3 3 -3c2,-3 6,-6 11,-8l1 -1 2 -3c3,-2 5,-4 9,-6 3,-3 7,-6 11,-7l3 -2 1 -2c4,-2 7,-5 11,-7 1,0 3,-1 5,-2l3 -2c3,-2 6,-4 10,-5 0,-1 2,-2 4,-3l3 -1c3,-3 6,-5 10,-6 2,-1 3,-2 5,-4 2,-1 3,-2 5,-2 2,-1 4,-1 4,-2 4,-2 7,-4 11,-5l2 0c2,-1 3,-2 5,-3 1,-1 3,-2 5,-3 3,-1 7,-2 10,-3 3,-2 4,-2 7,-3 3,0 5,-1 8,-2 2,-1 5,-2 7,-3 2,-1 5,-1 7,-2 3,-1 5,-2 8,-2 3,-2 8,-3 11,-3 4,-1 7,-2 11,-3 3,-2 7,-3 13,-3l0 0 2 0c4,-1 8,-1 12,-1 4,-2 8,-3 12,-3l1 0 2 0 2 0c4,-2 8,-2 12,-2l1 0 2 0 4 0 3 0 2 0 3 0c4,-2 8,-3 12,-3l1 0 2 0 2 0 3 0 2 0 5 0 2 0 3 0 2 0 3 0 3 0 1 0 3 0 2 0 3 0 3 0 2 0 2 0 2 0 3 0 3 0 2 0c4,0 9,1 12,3l3 0 2 0 3 0 2 0 2 0c4,0 9,0 13,2l3 0 2 0c5,0 9,1 12,3 5,0 9,1 12,1 6,0 10,1 13,3 4,1 8,2 11,3 2,0 5,1 6,2 4,0 8,2 11,3 2,1 5,1 7,2 3,1 6,2 8,3 4,1 8,2 11,4 1,1 3,1 5,3l2 1c2,0 5,0 7,2 5,1 9,3 12,5 4,1 5,2 8,4 2,1 3,2 5,2 4,1 6,5 10,7 0,0 1,1 2,1 2,1 4,2 5,3 2,1 4,2 5,2 3,1 7,4 9,6 3,1 5,3 8,5 2,1 5,3 7,5 4,2 8,4 11,7 1,1 2,1 3,1 4,2 8,6 12,9l1 3 3 1 3 2 68 -71c11,-12 31,-13 43,-1 7,6 11,14 10,24l-5 310 -308 18c-17,0 -32,-12 -33,-29 -1,-9 3,-19 9,-25l85 -90 -2 -3c-4,-1 -5,-2 -8,-5 -1,0 -2,-1 -3,-2 -4,0 -6,-2 -9,-5 -1,-1 -2,-1 -3,-1 -2,-1 -4,-2 -5,-3 -1,-1 -3,-2 -5,-3 -1,0 -3,-1 -5,-2 -2,-1 -3,-1 -5,-3 -2,0 -3,-1 -4,-1l-3 -2c-2,0 -5,-1 -7,-2 -2,-1 -5,-2 -8,-2 -2,-1 -5,-2 -6,-3 -3,-1 -5,-1 -7,-2 -4,-1 -7,-1 -11,-2 -4,0 -8,-1 -12,-3 -4,0 -8,-1 -12,-2l-2 0 -3 0 -2 0 -3 0c-4,0 -9,-1 -12,-3l-3 0 -2 0 -3 0 -2 0 -2 0 -3 0 -2 0 -3 0 -2 0c-4,2 -8,3 -12,3l-1 0 -2 0 -3 0 -1 0 -3 0 -2 0c-5,1 -9,2 -12,2l-1 0 -2 0c-3,2 -7,3 -10,3 -3,1 -6,1 -10,2 -1,1 -4,1 -6,2 -3,2 -7,3 -11,3 -2,0 -4,1 -6,2 -3,1 -5,2 -8,2l-1 2c-2,0 -4,1 -6,1 -1,2 -3,2 -5,3 -2,2 -6,3 -9,4l-4 1c-1,1 -2,2 -4,3 -2,0 -3,0 -3,1 -3,2 -6,5 -10,5 -1,1 -2,2 -2,2 -3,3 -6,4 -8,5 -2,2 -5,4 -7,5 -3,2 -5,5 -8,6 -2,3 -6,6 -9,7l-2 1c-3,3 -5,5 -8,6l-1 2 -3 3 -3 2 -2 2 -2 3 -2 2 -2 2c-2,3 -4,7 -7,9l-3 3 -2 2c-2,4 -4,7 -7,10 -3,2 -4,5 -6,8 -2,2 -4,5 -5,6 -1,3 -3,6 -6,8 0,1 0,2 -1,3 -1,3 -3,7 -5,9 -1,1 -1,2 -2,3 -1,1 -2,3 -3,6 -1,2 -1,3 -2,5l-1 2c-1,3 -2,7 -4,10l0 2c-1,4 -3,8 -5,10l-1 1c0,3 0,7 -1,10 -1,4 -2,8 -4,11 0,2 -1,4 -1,6 0,5 -1,8 -3,12l0 3c0,4 -1,8 -3,12l0 3 0 2 0 4 0 2 0 2 0 3c0,4 0,8 -2,12l0 2 0 3c2,4 2,8 2,12l0 1 0 1 0 3 0 3 0 2 0 2 0 2c2,5 3,9 3,13l0 0 0 2c2,4 3,9 3,13 0,3 1,6 2,9 1,2 1,6 2,7 2,4 2,7 2,12 1,1 2,4 3,6l1 2c1,2 2,3 2,4 2,4 3,7 4,11l1 2c1,1 1,3 2,5 1,1 2,3 3,5 1,1 2,3 2,5 1,1 2,2 3,4 1,2 2,4 2,5 1,1 1,2 1,4 3,2 5,4 6,7 1,2 3,5 5,7 2,3 6,6 8,10 3,2 6,7 7,10l3 3 3 2 1 3 3 3 2 2 3 3 3 1c0,2 2,3 3,5 2,1 3,2 5,4l3 3 2 2 2 3 2 1c2,1 5,3 7,5 4,2 6,4 10,8 2,0 5,2 7,4 2,2 5,3 8,5 0,1 1,1 2,2 2,1 4,1 5,2 2,0 4,1 5,3 2,0 4,1 5,2 1,0 4,1 6,2 2,1 5,3 7,4 3,1 5,2 7,4l3 1c3,0 4,1 7,2 2,0 5,1 8,3 1,0 4,1 6,2 3,0 7,0 11,2 2,1 3,1 6,2 4,0 8,1 12,2l2 0c5,0 9,1 12,4l3 0 3 0 2 0c4,0 8,1 12,3l3 0 2 0 2 0 3 0 2 0 0 0 0 0 0 0 0 0z"/>
   <path class="fil1" d="M2868 14231c30,0 60,10 81,29l266 -131c0,-3 0,-6 0,-10 0,-61 50,-111 111,-111 61,0 111,50 111,111 0,63 -50,112 -111,112 -32,0 -61,-13 -82,-35l-253 124c4,13 6,26 6,41 0,13 -2,25 -5,36l231 120c21,-26 55,-44 93,-44 67,0 121,54 121,121 0,67 -54,121 -121,121 -67,0 -121,-54 -121,-121 0,-3 0,-6 0,-9l-242 -126c-22,20 -53,32 -86,32 -72,0 -130,-59 -130,-130 0,-72 58,-130 130,-130l0 0 1 0 0 0z"/>
   <path class="fil1" d="M2910 16576l-17 51c13,-3 52,-27 60,-29 9,-2 43,12 79,7 -5,-30 -8,-43 0,-75 19,-66 86,-105 161,-100 -3,-45 -54,-91 -96,-107 -160,-67 -315,78 -237,201 20,33 45,45 50,52l0 0 0 0zm379 135l-13 -43c13,-13 15,-9 36,-34 10,-12 19,-28 23,-47 11,-43 -13,-83 -33,-103 -48,-49 -139,-64 -208,-18 -63,42 -79,127 -16,187 20,21 59,39 100,41 12,0 23,0 34,-2 7,-1 24,-7 30,-6 5,2 39,23 47,25l0 0 0 0 0 0zm-216 -329c-33,10 -16,48 15,42 25,-5 20,-51 -15,-42zm158 128c-25,12 -7,41 15,32 25,-11 5,-40 -15,-32zm-96 0c-22,6 -13,41 13,32 24,-8 11,-39 -13,-32zm-183 -128c-31,8 -21,46 10,43 28,-3 25,-52 -10,-43z"/>
   <polygon class="fil2" points="1291,0 1364,154 1533,177 1410,294 1440,462 1291,380 1141,462 1172,294 1048,177 1218,154 "/>
   <polygon class="fil2" points="1890,0 1963,154 2132,177 2009,294 2039,462 1890,380 1740,462 1771,294 1647,177 1817,154 "/>
   <polygon class="fil2" points="2489,0 2562,154 2731,177 2608,294 2638,462 2489,380 2339,462 2370,294 2246,177 2416,154 "/>
   <polygon class="fil2" points="3088,0 3161,154 3330,177 3207,294 3237,462 3088,380 2938,462 2969,294 2845,177 3015,154 "/>
   <polygon class="fil2" points="3687,0 3760,154 3929,177 3806,294 3837,462 3687,380 3537,462 3568,294 3444,177 3614,154 "/>
   <polygon class="fil2" points="4286,0 4359,154 4528,177 4405,294 4436,462 4286,380 4136,462 4168,294 4043,177 4213,154 "/>
   <polygon class="fil2" points="4885,0 4959,154 5127,177 5004,294 5035,462 4885,380 4735,462 4767,294 4642,177 4812,154 "/>
   <polygon class="fil2" points="1291,8538 1364,8693 1533,8715 1410,8833 1440,9000 1291,8919 1141,9000 1172,8833 1048,8715 1218,8693 "/>
   <polygon class="fil3" points="1890,8538 1963,8693 2132,8715 2009,8833 2039,9000 1890,8919 1740,9000 1771,8833 1647,8715 1817,8693 "/>
   <polygon class="fil3" points="2489,8538 2562,8693 2731,8715 2608,8833 2638,9000 2489,8919 2339,9000 2370,8833 2246,8715 2416,8693 "/>
   <polygon class="fil3" points="3088,8538 3161,8693 3330,8715 3207,8833 3237,9000 3088,8919 2938,9000 2969,8833 2845,8715 3015,8693 "/>
   <polygon class="fil3" points="3687,8538 3760,8693 3929,8715 3806,8833 3837,9000 3687,8919 3537,9000 3568,8833 3444,8715 3614,8693 "/>
   <polygon class="fil3" points="4286,8538 4359,8693 4528,8715 4405,8833 4436,9000 4286,8919 4136,9000 4168,8833 4043,8715 4213,8693 "/>
   <polygon class="fil3" points="4885,8538 4959,8693 5127,8715 5004,8833 5035,9000 4885,8919 4735,9000 4767,8833 4642,8715 4812,8693 "/>
   <polygon class="fil2" points="1291,7115 1364,7270 1533,7292 1410,7409 1440,7577 1291,7496 1141,7577 1172,7409 1048,7292 1218,7270 "/>
   <polygon class="fil2" points="1890,7115 1963,7270 2132,7292 2009,7409 2039,7577 1890,7496 1740,7577 1771,7409 1647,7292 1817,7270 "/>
   <polygon class="fil3" points="2489,7115 2562,7270 2731,7292 2608,7409 2638,7577 2489,7496 2339,7577 2370,7409 2246,7292 2416,7270 "/>
   <polygon class="fil3" points="3088,7115 3161,7270 3330,7292 3207,7409 3237,7577 3088,7496 2938,7577 2969,7409 2845,7292 3015,7270 "/>
   <polygon class="fil3" points="3687,7115 3760,7270 3929,7292 3806,7409 3837,7577 3687,7496 3537,7577 3568,7409 3444,7292 3614,7270 "/>
   <polygon class="fil3" points="4286,7115 4359,7270 4528,7292 4405,7409 4436,7577 4286,7496 4136,7577 4168,7409 4043,7292 4213,7270 "/>
   <polygon class="fil3" points="4885,7115 4959,7270 5127,7292 5004,7409 5035,7577 4885,7496 4735,7577 4767,7409 4642,7292 4812,7270 "/>
   <polygon class="fil2" points="1291,5692 1364,5847 1533,5869 1410,5986 1440,6154 1291,6072 1141,6154 1172,5986 1048,5869 1218,5847 "/>
   <polygon class="fil2" points="1890,5692 1963,5847 2132,5869 2009,5986 2039,6154 1890,6072 1740,6154 1771,5986 1647,5869 1817,5847 "/>
   <polygon class="fil2" points="2489,5692 2562,5847 2731,5869 2608,5986 2638,6154 2489,6072 2339,6154 2370,5986 2246,5869 2416,5847 "/>
   <polygon class="fil3" points="3088,5692 3161,5847 3330,5869 3207,5986 3237,6154 3088,6072 2938,6154 2969,5986 2845,5869 3015,5847 "/>
   <polygon class="fil3" points="3687,5692 3760,5847 3929,5869 3806,5986 3837,6154 3687,6072 3537,6154 3568,5986 3444,5869 3614,5847 "/>
   <polygon class="fil3" points="4286,5692 4359,5847 4528,5869 4405,5986 4436,6154 4286,6072 4136,6154 4168,5986 4043,5869 4213,5847 "/>
   <polygon class="fil3" points="4885,5692 4959,5847 5127,5869 5004,5986 5035,6154 4885,6072 4735,6154 4767,5986 4642,5869 4812,5847 "/>
   <polygon class="fil2" points="1291,4269 1364,4424 1533,4446 1410,4563 1440,4731 1291,4649 1141,4731 1172,4563 1048,4446 1218,4424 "/>
   <polygon class="fil2" points="1890,4269 1963,4424 2132,4446 2009,4563 2039,4731 1890,4649 1740,4731 1771,4563 1647,4446 1817,4424 "/>
   <polygon class="fil2" points="2489,4269 2562,4424 2731,4446 2608,4563 2638,4731 2489,4649 2339,4731 2370,4563 2246,4446 2416,4424 "/>
   <polygon class="fil2" points="3088,4269 3161,4424 3330,4446 3207,4563 3237,4731 3088,4649 2938,4731 2969,4563 2845,4446 3015,4424 "/>
   <polygon class="fil3" points="3687,4269 3760,4424 3929,4446 3806,4563 3837,4731 3687,4649 3537,4731 3568,4563 3444,4446 3614,4424 "/>
   <polygon class="fil3" points="4286,4269 4359,4424 4528,4446 4405,4563 4436,4731 4286,4649 4136,4731 4168,4563 4043,4446 4213,4424 "/>
   <polygon class="fil3" points="4885,4269 4959,4424 5127,4446 5004,4563 5035,4731 4885,4649 4735,4731 4767,4563 4642,4446 4812,4424 "/>
   <polygon class="fil2" points="1291,2846 1364,3001 1533,3023 1410,3140 1440,3308 1291,3226 1141,3308 1172,3140 1048,3023 1218,3001 "/>
   <polygon class="fil2" points="1890,2846 1963,3001 2132,3023 2009,3140 2039,3308 1890,3226 1740,3308 1771,3140 1647,3023 1817,3001 "/>
   <polygon class="fil2" points="2489,2846 2562,3001 2731,3023 2608,3140 2638,3308 2489,3226 2339,3308 2370,3140 2246,3023 2416,3001 "/>
   <polygon class="fil2" points="3088,2846 3161,3001 3330,3023 3207,3140 3237,3308 3088,3226 2938,3308 2969,3140 2845,3023 3015,3001 "/>
   <polygon class="fil2" points="3687,2846 3760,3001 3929,3023 3806,3140 3837,3308 3687,3226 3537,3308 3568,3140 3444,3023 3614,3001 "/>
   <polygon class="fil3" points="4286,2846 4359,3001 4528,3023 4405,3140 4436,3308 4286,3226 4136,3308 4168,3140 4043,3023 4213,3001 "/>
   <polygon class="fil3" points="4885,2846 4959,3001 5127,3023 5004,3140 5035,3308 4885,3226 4735,3308 4767,3140 4642,3023 4812,3001 "/>
   <polygon class="fil2" points="1291,1423 1364,1577 1533,1600 1410,1717 1440,1885 1291,1803 1141,1885 1172,1717 1048,1600 1218,1577 "/>
   <polygon class="fil2" points="1890,1423 1963,1577 2132,1600 2009,1717 2039,1885 1890,1803 1740,1885 1771,1717 1647,1600 1817,1577 "/>
   <polygon class="fil2" points="2489,1423 2562,1577 2731,1600 2608,1717 2638,1885 2489,1803 2339,1885 2370,1717 2246,1600 2416,1577 "/>
   <polygon class="fil2" points="3088,1423 3161,1577 3330,1600 3207,1717 3237,1885 3088,1803 2938,1885 2969,1717 2845,1600 3015,1577 "/>
   <polygon class="fil2" points="3687,1423 3760,1577 3929,1600 3806,1717 3837,1885 3687,1803 3537,1885 3568,1717 3444,1600 3614,1577 "/>
   <polygon class="fil2" points="4286,1423 4359,1577 4528,1600 4405,1717 4436,1885 4286,1803 4136,1885 4168,1717 4043,1600 4213,1577 "/>
   <polygon class="fil3" points="4885,1423 4959,1577 5127,1600 5004,1717 5035,1885 4885,1803 4735,1885 4767,1717 4642,1600 4812,1577 "/>
   <polygon class="fil3" points="1291,9839 1364,9993 1533,10015 1410,10133 1440,10300 1291,10219 1141,10300 1172,10133 1048,10015 1218,9993 "/>
   <polygon class="fil3" points="1890,9839 1963,9993 2132,10015 2009,10133 2039,10300 1890,10219 1740,10300 1771,10133 1647,10015 1817,9993 "/>
   <polygon class="fil3" points="2489,9839 2562,9993 2731,10015 2608,10133 2638,10300 2489,10219 2339,10300 2370,10133 2246,10015 2416,9993 "/>
   <polygon class="fil3" points="3088,9839 3161,9993 3330,10015 3207,10133 3237,10300 3088,10219 2938,10300 2969,10133 2845,10015 3015,9993 "/>
   <polygon class="fil3" points="3687,9839 3760,9993 3929,10015 3806,10133 3837,10300 3687,10219 3537,10300 3568,10133 3444,10015 3614,9993 "/>
   <polygon class="fil3" points="4286,9839 4359,9993 4528,10015 4405,10133 4436,10300 4286,10219 4136,10300 4168,10133 4043,10015 4213,9993 "/>
   <polygon class="fil3" points="4885,9839 4959,9993 5127,10015 5004,10133 5035,10300 4885,10219 4735,10300 4767,10133 4642,10015 4812,9993 "/>
   <g id="_558203040">
    <path class="fil4" d="M2461 23534l54 -56 1199 0 0 1250c0,88 -73,158 -164,158l-925 0c-91,0 -164,-70 -164,-158 0,-397 0,-796 0,-1194l0 0 0 0 0 0 0 0 0 0z"/>
    <path class="fil5" d="M2515 23478l1199 0 0 1250c0,88 -70,158 -156,158l-885 0c-87,0 -158,-70 -158,-158l0 -1250 0 0 0 0 0 0 0 0 0 0z"/>
    <path class="fil4" d="M3714 23478c-57,156 -188,272 -344,332 -6,136 -118,244 -255,244 -137,0 -248,-108 -255,-244 -157,-60 -286,-174 -345,-332l1199 0 0 0 0 0 0 0 0 0 0 0z"/>
    <path class="fil6" d="M3714 23478c-87,212 -340,340 -599,340 -258,0 -513,-128 -600,-340l1199 0 0 0 0 0zm-371 674l-167 203 130 0 0 44 -152 0 0 63 152 0 0 45 -152 0 0 91 -78 0 0 -91 -159 0 0 -45 159 0 0 -63 -159 0 0 -44 135 0 -165 -203 88 0c79,101 125,164 142,191l1 0c5,-10 21,-33 46,-68l94 -123 85 0z"/>
    <path class="fil7" d="M3115 23583c130,0 235,106 235,235 0,131 -105,236 -235,236 -131,0 -236,-105 -236,-236 0,-129 105,-235 236,-235z"/>
    <path class="fil8" d="M3078 23669l0 114c22,-31 39,-70 51,-117l42 8c-3,13 -7,27 -12,40l105 0 0 41 -21 0c-6,52 -21,96 -42,131 18,18 41,31 66,40 -9,12 -18,27 -27,42 -25,-13 -48,-30 -66,-49 -20,21 -44,37 -72,51 -6,-14 -15,-29 -24,-41 27,-12 49,-28 67,-45 -13,-21 -25,-46 -33,-72 -3,4 -6,9 -9,14 -7,-13 -16,-25 -25,-37l0 179 -41 0 0 -87c-25,12 -45,24 -57,35l-18 -39c7,-6 12,-14 12,-24l0 -154 38 0 0 154 25 -14 0 -170 41 0zm95 182c13,-25 24,-57 31,-96l-60 0c-2,3 -3,6 -5,9 6,33 17,62 34,87z"/>
   </g>
   <g id="_558200856">
    <path class="fil5" d="M2488 21170l1199 0 0 1250c0,86 -71,158 -156,158l-885 0c-87,0 -158,-72 -158,-158l0 -1250 0 0 0 0 0 0 0 0 0 0z"/>
    <path class="fil9" d="M3687 21170c-87,-214 -340,-340 -599,-342 -259,2 -513,128 -600,342 87,212 341,338 600,340 259,-2 512,-128 599,-340z"/>
    <path class="fil10" d="M2488 21170c87,212 341,338 600,340 259,-2 512,-128 599,-340 -87,141 -284,278 -599,290 -301,11 -513,-149 -600,-290z"/>
    <path class="fil7" d="M3088 21275c130,0 235,105 235,235 0,129 -105,235 -235,235 -131,0 -236,-106 -236,-235 0,-130 105,-235 236,-235z"/>
    <path class="fil8" d="M3209 21519c-17,27 -36,50 -62,71 24,10 54,18 93,24 -9,15 -18,30 -25,45 -42,-9 -77,-24 -107,-42 -30,18 -65,33 -106,45 -7,-14 -16,-27 -24,-39 35,-11 65,-21 92,-33 -15,-15 -28,-31 -40,-49 -23,38 -50,70 -82,97 -4,-20 -7,-36 -13,-51 40,-38 70,-82 90,-131l-77 0 0 -36c5,-17 11,-35 15,-53l42 4c-3,12 -7,29 -13,47l44 0c6,-17 10,-38 15,-60l43 4 -12 56 86 0c-12,-11 -24,-23 -36,-33l27 -26c20,15 35,27 48,39l-19 20 51 0 0 38 -169 0c-3,9 -6,18 -10,28l149 0 0 35zm-101 48c21,-15 37,-30 49,-47l-93 0c12,18 26,33 44,47z"/>
   </g>
   <g>
    <path class="fil4" d="M2461 28075l54 -56 1199 0 0 1250c0,88 -73,158 -164,158l-925 0c-91,0 -164,-70 -164,-158 0,-397 0,-796 0,-1194l0 0 0 0 0 0 0 0 0 0z"/>
    <path class="fil5" d="M2515 28019l1199 0 0 1250c0,88 -70,158 -156,158l-885 0c-87,0 -158,-70 -158,-158l0 -1250 0 0 0 0 0 0 0 0 0 0z"/>
    <path class="fil4" d="M3714 28019c-57,156 -188,272 -344,332 -6,136 -118,244 -255,244 -137,0 -248,-108 -255,-244 -157,-60 -286,-174 -345,-332l1199 0 0 0 0 0 0 0 0 0 0 0z"/>
    <path class="fil6" d="M3714 28019c-87,212 -340,340 -599,340 -258,0 -513,-128 -600,-340l1199 0 0 0 0 0z"/>
    <path class="fil11" d="M3115 28124c130,0 235,106 235,235 0,131 -105,236 -235,236 -131,0 -236,-105 -236,-236 0,-129 105,-235 236,-235z"/>
    <path class="fil12" d="M3236 28368c-17,27 -36,50 -62,71 24,10 54,18 93,24 -9,15 -18,30 -25,45 -42,-9 -77,-24 -107,-42 -30,18 -65,33 -106,45 -7,-14 -16,-27 -24,-39 35,-11 65,-21 92,-33 -15,-15 -28,-31 -40,-49 -23,38 -50,70 -82,97 -4,-20 -7,-36 -13,-51 40,-38 70,-82 90,-131l-77 0 0 -36c5,-17 11,-35 15,-53l42 4c-3,12 -7,29 -13,47l44 0c6,-17 10,-38 15,-60l43 4 -12 56 86 0c-12,-11 -24,-23 -36,-33l27 -26c20,15 35,27 48,39l-19 20 51 0 0 38 -169 0c-3,9 -6,18 -10,28l149 0 0 35zm-101 48c21,-15 37,-30 49,-47l-93 0c12,18 26,33 44,47z"/>
    <path class="fil13" d="M3115 28387c92,0 176,38 237,99 61,60 98,144 98,237 0,93 -37,177 -98,237 -61,61 -145,99 -237,99 -93,0 -177,-38 -238,-99 -61,-60 -98,-144 -98,-237 0,-93 37,-177 98,-237 61,-61 145,-99 238,-99zm-21 112l0 0c11,0 21,9 21,21l0 203 203 0c11,0 21,9 21,21l0 0c0,11 -10,21 -21,21l-203 0c-12,0 -21,-10 -21,-21l0 0c-12,0 -21,-10 -21,-21l0 -203c0,-12 9,-21 21,-21zm218 26c-50,-51 -120,-82 -197,-82 -78,0 -148,31 -198,82 -51,51 -82,121 -82,198 0,77 31,147 82,198 50,50 120,82 198,82 77,0 147,-32 197,-82 51,-51 82,-121 82,-198 0,-77 -31,-147 -82,-198z"/>
   </g>
   <path class="fil5" d="M0 30671l6175 0 0 8201c0,351 -279,628 -622,628l-4923 0c-347,0 -630,-279 -630,-628l0 -8201 0 0 0 0z"/>
   <path class="fil4" d="M6175 30671c-448,975 -1751,1564 -3085,1564 -1329,0 -2642,-589 -3090,-1564l6175 0 0 0 0 0z"/>
   <path class="fil6" d="M6175 30671c-448,845 -1751,1356 -3085,1356 -1329,0 -2642,-511 -3090,-1356l6175 0 0 0 0 0z"/>
   <path class="fil7" d="M3089 31423c334,0 605,272 605,604 0,338 -271,608 -605,608 -337,0 -607,-270 -607,-608 0,-332 270,-604 607,-604z"/>
   <path class="fil12" d="M3400 32052c-43,69 -92,129 -159,183 62,25 139,46 239,61 -23,39 -46,78 -64,116 -108,-23 -198,-62 -276,-108 -77,46 -167,85 -272,116 -18,-36 -42,-70 -62,-100 90,-29 167,-54 237,-85 -39,-39 -72,-80 -103,-126 -60,97 -129,180 -211,249 -11,-51 -18,-92 -34,-131 103,-98 180,-211 232,-337l-198 0 0 -93c12,-44 28,-90 38,-136l108 10c-7,31 -18,75 -33,121l113 0c16,-44 26,-98 39,-154l110 10 -31 144 222 0c-31,-28 -62,-59 -93,-85l70 -67c51,39 90,70 123,101l-49 51 132 0 0 98 -435 0c-8,23 -16,46 -26,72l383 0 0 90 0 0 0 0 0 0zm-260 123c54,-38 96,-77 126,-121l-239 0c31,47 67,85 113,121z"/>
   <g>
    <path class="fil14" d="M2619 26167l0 0c10,10 10,27 0,36l-248 249 248 249c10,10 10,27 0,37l0 0c-9,10 -26,10 -36,0l-249 -249 -249 249c-10,10 -26,10 -36,0l0 0c-10,-10 -10,-27 0,-37l249 -249 -249 -249c-10,-9 -10,-26 0,-36l0 0c10,-10 26,-10 36,0l249 249 249 -249c10,-10 27,-10 36,0z"/>
    <path class="fil15" d="M2334 25976c132,0 251,53 337,140 86,86 140,205 140,337 0,131 -54,250 -140,337 -86,86 -205,139 -337,139 -131,0 -251,-53 -337,-139 -86,-87 -140,-206 -140,-337 0,-132 54,-251 140,-337 86,-87 206,-140 337,-140zm309 168c-79,-79 -188,-128 -309,-128 -120,0 -230,49 -309,128 -79,79 -128,188 -128,309 0,120 49,229 128,308 79,79 189,128 309,128 121,0 230,-49 309,-128 79,-79 128,-188 128,-308 0,-121 -49,-230 -128,-309z"/>
    <g>
     <path class="fil15" d="M3841 25976c132,0 251,53 337,140 86,86 140,205 140,337 0,131 -54,250 -140,337 -86,86 -205,139 -337,139 -131,0 -251,-53 -337,-139 -86,-87 -139,-206 -139,-337 0,-132 53,-251 139,-337 86,-87 206,-140 337,-140zm309 168c-79,-79 -188,-128 -309,-128 -120,0 -230,49 -309,128 -79,79 -127,188 -127,309 0,120 48,229 127,308 79,79 189,128 309,128 121,0 230,-49 309,-128 79,-79 128,-188 128,-308 0,-121 -49,-230 -128,-309z"/>
     <path class="fil14" d="M4151 26225l0 0c10,10 10,26 0,36l-426 427 -194 -194c-10,-9 -10,-26 0,-36l0 0c10,-10 27,-10 37,0l157 157 390 -390c10,-10 26,-10 36,0l0 0z"/>
    </g>
   </g>
   <g>
    <path class="fil5" d="M38 40585l6099 0 0 6986c0,448 -356,804 -793,804l-4503 0c-442,0 -804,-356 -804,-804l0 -6986 1 0z"/>
    <path class="fil4" d="M6137 40585c-343,943 -1197,1596 -2179,1841 -60,378 -425,667 -869,667 -447,0 -813,-289 -873,-669 -979,-246 -1835,-898 -2178,-1839l6099 0 0 0 0 0z"/>
    <path class="fil6" d="M6137 40585c-442,1078 -1729,1729 -3047,1729 -1313,0 -2610,-651 -3052,-1729l6099 0 0 0 0 0z"/>
    <path class="fil7" d="M3089 41541c428,0 774,349 774,774 0,432 -346,778 -774,778 -431,0 -777,-346 -777,-778 0,-425 346,-774 777,-774z"/>
    <path class="fil8" d="M2967 41824l0 376c73,-102 129,-231 168,-385l139 26c-10,43 -23,89 -40,132l346 0 0 135 -69 0c-20,171 -69,316 -139,431 60,60 136,102 218,132 -30,40 -59,89 -89,138 -82,-42 -158,-98 -217,-161 -66,69 -145,122 -238,168 -19,-46 -49,-95 -79,-135 89,-40 162,-92 221,-148 -43,-69 -82,-152 -109,-237 -10,13 -20,29 -29,46 -23,-43 -53,-83 -83,-122l0 589 -135 0 0 -286c-82,39 -148,79 -188,115l-59 -128c23,-20 40,-46 40,-79l0 -508 125 0 0 508 82 -47 0 -560 135 0 0 0 0 0zm313 600c43,-82 79,-188 102,-316l-197 0c-7,10 -10,20 -17,29 20,109 56,205 112,287z"/>
   </g>
   <g>
    <path class="fil16" d="M2235 18995c79,23 187,-17 197,-14 29,188 173,316 329,376 64,27 116,35 189,47 14,-1 35,2 50,3 18,1 35,1 52,1 37,0 67,-4 102,-6l28 -3c12,-3 39,-7 54,-9 19,-4 35,-7 52,-12 26,-5 49,-11 71,-20 35,-13 22,-10 47,-20 22,-8 42,-20 63,-31 33,-16 62,-33 93,-53 10,-6 40,-27 46,-29l61 -50c36,-28 82,-80 109,-116 15,-23 28,-43 42,-70 51,-103 59,-218 27,-329 -3,-9 -12,-37 -12,-43 40,-2 80,-7 116,-19 17,-7 31,-14 45,-23 13,-9 21,-16 30,-28 1,0 3,-3 3,-3 2,-2 2,-1 2,-2 31,-62 27,-133 0,-210 -2,-9 -15,-31 -21,-42 -82,-131 -211,-68 -313,-7 -3,-3 -3,-7 -5,-11 -11,-27 -25,-52 -38,-77 -8,-13 -17,-27 -26,-39 -4,-7 -26,-35 -27,-38 -6,-14 7,-11 -9,-26 -15,-15 -34,-34 -51,-46 -13,-9 -23,-19 -37,-29 -74,-47 -133,-74 -225,-99 -30,-8 -24,-6 -44,-21 -31,-25 -66,-49 -104,-60 -7,-2 -20,-3 -26,-6l-31 0c-19,9 -24,-4 -80,38 -6,4 -10,8 -15,13 -9,8 -38,39 -42,47 -8,-1 -36,-12 -50,-16 -55,-15 -116,-15 -168,8 -69,29 -106,84 -91,160 -14,9 -60,52 -72,66l-47 56c-5,7 -8,14 -15,20 -14,11 -22,18 -33,36 -27,47 -40,102 -51,157 9,13 10,-14 4,34 -8,49 -8,76 -8,127 -85,-5 -177,-9 -237,60 -7,9 -14,19 -20,31 -50,90 -34,292 86,327z"/>
    <g>
     <path class="fil17" d="M2922 19375c-1,-1 -2,-2 -4,-3 17,6 35,9 56,13 46,7 138,5 184,0 165,-18 425,-118 527,-286 -2,6 -5,11 -7,16 -5,7 -8,12 -12,19 25,-17 73,-86 91,-112 47,-78 73,-173 64,-273 -8,-89 -32,-121 -82,-188 -17,-22 -41,-56 -50,-86 -8,-26 -6,-33 -2,-59 2,-14 -4,-49 -7,-63 -15,-90 -59,-164 -114,-223 -9,-9 -5,-11 -22,-8 -10,1 -19,3 -30,6 -162,32 -356,110 -515,79 -25,-4 -7,-3 -44,19 -108,65 -308,50 -495,183 -11,8 -9,6 -11,22 -36,242 24,337 20,399 -1,19 -9,23 -10,56 -2,43 3,85 14,123 24,79 54,114 100,171 12,15 54,53 69,65 56,43 107,73 175,99 30,11 73,26 105,31l0 0 0 0z"/>
     <path class="fil17" d="M3705 18300l7 68c10,-4 38,-21 61,-29 77,-33 140,-27 179,51 22,45 14,99 -20,136 -41,44 -106,50 -123,59l10 15c68,-1 145,-23 176,-61 43,-54 29,-124 5,-188 -44,-112 -110,-141 -218,-94 -19,9 -65,32 -77,43l0 0z"/>
     <path class="fil17" d="M2425 18963l-1 -40c-15,-3 -127,28 -173,-47 -9,-15 -18,-39 -17,-60 4,-73 48,-109 109,-120 25,-5 48,-3 72,-6l-12 -88c-72,-6 -137,-5 -185,33 -40,33 -62,91 -59,166 4,71 30,126 75,149 43,24 92,27 142,21 9,0 17,-1 26,-3 8,-1 18,-2 23,-5l0 0 0 0z"/>
    </g>
    <path class="fil18" d="M2974 19385c46,7 138,5 184,0 192,-21 511,-152 563,-372 37,-156 -27,-348 -134,-456l-28 -28c-8,-7 -22,-20 -31,-25 2,-41 5,-71 -3,-112 -7,-32 -20,-60 -35,-83 -30,-42 -78,-77 -150,-87 -88,-10 -168,19 -232,61 -14,10 -22,17 -33,26l-46 44c-4,4 -8,11 -14,14 -13,-1 -33,-10 -47,-14 -86,-25 -177,-30 -260,4 -124,52 -172,184 -96,315 17,31 20,21 13,39 -58,152 -43,323 26,450 50,93 131,159 227,197 34,14 59,21 96,27z"/>
    <path class="fil7" d="M2927 17958c-7,-2 -20,-12 -29,-17 -10,-5 -20,-9 -32,-13 -59,-21 -129,-14 -180,25 -24,19 -47,49 -50,84 -2,25 8,56 21,69 46,42 120,26 112,-19 -58,27 -78,-25 -52,-51 23,-24 60,-46 102,-22 25,14 54,65 26,95 -21,21 -66,33 -103,42 -106,24 -243,30 -289,140 -11,27 -25,85 -28,116l62 -34c186,-109 148,-72 357,-132 34,-9 91,-30 115,-56 5,-5 9,-10 12,-14 12,4 21,8 34,12 88,24 190,2 275,-21 48,-12 95,-26 143,-37 25,-6 48,-11 74,-16 27,-5 53,-6 80,-9 -29,-29 -76,-77 -117,-94 -22,-10 -36,-5 -61,-2 -81,12 -152,39 -229,56 -26,6 -101,21 -123,5 -90,-65 10,-157 77,-121 26,15 39,49 13,65 -11,6 -19,5 -28,8 -4,34 31,41 59,30 12,-5 20,-13 28,-20 28,-21 52,-63 31,-102 -10,-21 -31,-40 -49,-52 -79,-55 -143,-36 -207,29 -9,9 -39,42 -44,56l0 0z"/>
    <g>
     <path class="fil19" d="M3419 19334c-2,44 13,107 29,142 35,77 123,113 197,145 15,7 114,47 122,48 -3,-71 -19,-193 -37,-263 -18,-78 -50,-164 -122,-181 -6,2 -36,23 -46,29 -31,20 -60,37 -93,53l-38 20c-4,1 -9,3 -12,7l0 0 0 0z"/>
     <path class="fil19" d="M3182 19399c15,49 34,89 87,105 53,17 116,-6 157,-26 -13,-41 -34,-67 -37,-123l-3 -8c-30,15 -61,24 -98,31 -17,5 -33,8 -52,12 -15,2 -42,6 -54,9l0 0 0 0z"/>
     <path class="fil19" d="M2950 19404c-6,18 -13,35 -17,56 -12,65 -4,128 17,190 12,35 29,70 46,98 9,14 51,79 60,83 1,-103 162,-165 161,-327 -29,-24 -64,-57 -63,-102 -35,2 -65,6 -102,6 -18,0 -34,0 -52,-1 -15,-1 -36,-4 -50,-3l0 0 0 0z"/>
    </g>
    <path class="fil20" d="M3379 18668c-22,16 -41,43 -46,73 -12,73 55,117 125,110 115,-10 172,-133 97,-192 -54,-42 -125,-29 -176,9z"/>
    <path class="fil20" d="M2730 18850c-20,18 -41,44 -43,76 -8,107 128,135 211,69 20,-17 41,-46 44,-76 12,-114 -144,-134 -212,-69z"/>
    <path class="fil21" d="M3249 18443c-16,3 -27,13 -36,27 3,6 4,13 5,20 3,-4 6,-6 10,-8 38,-19 66,68 30,84 -24,11 -43,-17 -47,-45 -2,4 -6,7 -9,8 -1,0 -1,0 -2,0 1,11 3,21 5,31 9,37 44,88 90,78 42,-10 57,-68 44,-117 -10,-37 -44,-89 -90,-78l0 0z"/>
    <path class="fil21" d="M2832 18423c-3,-11 -16,-25 -23,-30 -37,-26 -87,0 -98,48 -3,8 -1,18 7,10 2,-1 8,-12 10,-16 7,-11 17,-23 26,-29 32,-21 60,1 78,17z"/>
    <path class="fil21" d="M3201 18338c4,-4 7,-14 10,-19 8,-15 20,-28 39,-29 34,-4 58,24 71,22 6,-14 -34,-43 -71,-39 -24,3 -42,21 -47,45 -2,6 -2,13 -2,20l0 0z"/>
    <path class="fil21" d="M3127 18771l29 79c9,27 17,54 24,84 8,29 14,58 19,88 4,26 11,71 11,98 -18,8 -91,16 -113,18 -30,2 -100,6 -128,1 -2,-14 5,-11 9,-21 -10,2 -19,11 -22,17 -7,11 -8,21 -7,34l11 -19c18,-2 57,4 79,4 80,0 143,-6 220,-30 62,-20 115,-48 166,-83 27,-17 29,-29 49,-10 -2,-11 -8,-18 -16,-23 -9,-4 -25,-6 -32,0 9,4 13,-1 22,5 -4,10 -84,51 -101,59 -36,16 -79,33 -117,44l-13 -96c-12,-71 -33,-147 -59,-213 -4,-12 -12,-29 -15,-40 -1,0 -1,0 -2,-1 9,-3 19,-5 28,-6 22,-3 45,0 48,0 5,-1 0,1 4,-2 -31,-12 -56,-27 -101,-12 -25,8 -56,33 -65,58 3,1 12,-5 15,-8 20,-10 38,-20 57,-26l0 1 0 0 0 0z"/>
    <path class="fil21" d="M2836 18545c-15,4 -26,13 -34,26 1,3 1,5 2,7 1,5 2,9 3,14 3,-5 7,-8 13,-9 19,-6 35,16 40,32 7,23 1,49 -18,54 -22,6 -39,-21 -43,-46 -3,4 -6,7 -10,9 0,11 1,21 4,31 10,35 45,90 92,77 42,-11 56,-70 42,-119 -11,-36 -44,-86 -91,-76l0 0 0 0z"/>
   </g>
  </g>
 </g>
</svg>
